<svg xmlns="http://www.w3.org/2000/svg" viewBox="0 0 105 115"><defs><style>.a{fill:red;}.b{fill:#fff;}</style></defs><title>Mesa de trabajo 1</title><path class="a" d="M28.5,2s2.6,12.6,34.3,17.8S90.5,38,90.5,38s12.1,5.2,11.3,18.2a214.6,214.6,0,0,1-3.5,25.6l-6.9-2.6a23.4,23.4,0,0,0-3-18.2S77.1,47.1,54.1,48.8s-32.5-6.1-32.5-6.1l.4.4a34.6,34.6,0,0,0,15,7.7h0S11.8,55.5,13.5,79.8l-6.7,2L4.3,69.6c-1.4-8,.4-18,5.1-24.7h0a3.4,3.4,0,0,0-3,.9c-1.3,1.3,1.3-6.5,3.5-6.9l-.3-.6A29.1,29.1,0,0,1,8.1,18h0v5.5a7.9,7.9,0,0,0,1.7,4.9h0A26.4,26.4,0,0,1,21.2,6l2.6-1.8s-6.9,6.9-6.9,11.3c0,0,7.4-11.3,11.7-13.4h0"/><path class="b" d="M62.8,22.4a38.8,38.8,0,0,1,7.3,1.1,38,38,0,0,1,7,2.4,26.9,26.9,0,0,1,6.3,4l1.3,1.3.7.7.6.7a16.2,16.2,0,0,1,1.9,3.2l-1.1-1.5a10.3,10.3,0,0,0-1.2-1.4l-.6-.7-.7-.6L83,30.5a33.9,33.9,0,0,0-6.3-3.7,55.3,55.3,0,0,0-6.8-2.6l-3.5-1Z"/><path class="b" d="M24.6,7.6a29.5,29.5,0,0,0-2,3.8,35.6,35.6,0,0,0-1.5,3.9,39.3,39.3,0,0,0-1,4.1c-.3,1.4-.5,2.8-.7,4.2-.1-.7-.1-1.4-.2-2.2a20,20,0,0,1,.1-2.2,21.2,21.2,0,0,1,.8-4.3,20.3,20.3,0,0,1,1.7-4A13.6,13.6,0,0,1,24.6,7.6Z"/><path class="a" d="M100.8,84.2l-4.7-.9a9.1,9.1,0,0,1-2.4-.8h0a15.2,15.2,0,0,0-6.8-1.6H17.7a15.2,15.2,0,0,0-7.4,1.9l-1,.3-4,.7a3.9,3.9,0,0,0-3.3,3.8v1.2a4.3,4.3,0,0,0,2.1,3.7h.2a4.2,4.2,0,0,1,2,3.6v6A10.7,10.7,0,0,0,17.1,113H40.9a8,8,0,0,0,8-8V95.9a4.8,4.8,0,0,1,1.4-3.4h0a3.7,3.7,0,0,1,5.3.1,6,6,0,0,1,1.5,4v8.6a7.8,7.8,0,0,0,7.8,7.8H88.6a11,11,0,0,0,11-11V97.3a5.1,5.1,0,0,1,2.5-4.4,3.8,3.8,0,0,0,1.8-3.3V88A3.9,3.9,0,0,0,100.8,84.2ZM44.1,103a5.2,5.2,0,0,1-5.2,5.2H16.4a5.2,5.2,0,0,1-5.2-5.2V90.9a5.2,5.2,0,0,1,5.2-5.2H38.9a5.2,5.2,0,0,1,5.2,5.2Zm50.7,0a5.2,5.2,0,0,1-5.2,5.2H67.1a5.2,5.2,0,0,1-5.2-5.2V90.9a5.2,5.2,0,0,1,5.2-5.2H89.6a5.2,5.2,0,0,1,5.2,5.2Z"/></svg>