<?xml version="1.0" encoding="utf-8"?>
<!-- Generator: Adobe Illustrator 21.1.0, SVG Export Plug-In . SVG Version: 6.00 Build 0)  -->
<svg version="1.1" id="Capa_1" xmlns="http://www.w3.org/2000/svg" xmlns:xlink="http://www.w3.org/1999/xlink" x="0px" y="0px"
	 viewBox="0 0 105 115" style="enable-background:new 0 0 105 115;" xml:space="preserve">
<style type="text/css">
	.st0{fill:#FCFCFC;}
</style>
<title>Mesa de trabajo 1</title>
<g>
	<path class="st0" d="M28.5,2c0,0,2.6,12.6,34.3,17.8S90.5,38,90.5,38s12.1,5.2,11.3,18.2c-0.7,8.6-1.8,17.1-3.5,25.6l-6.9-2.6
		c1.5-6.2,0.4-12.8-3-18.2c0,0-11.3-13.9-34.3-12.2s-32.5-6.1-32.5-6.1l0.4,0.4c4.3,3.8,9.4,6.4,15,7.7l0,0c0,0-25.2,4.7-23.5,29
		l-6.7,2L4.3,69.6c-1.4-8,0.4-18,5.1-24.7l0,0c-1.1-0.2-2.2,0.1-3,0.9c-1.3,1.3,1.3-6.5,3.5-6.9l-0.3-0.6C6.7,31.9,6.1,24.7,8.1,18
		l0,0v5.5c0,1.8,0.6,3.5,1.7,4.9l0,0C9.6,19.5,13.9,11.1,21.2,6l2.6-1.8c0,0-6.9,6.9-6.9,11.3c0,0,7.4-11.3,11.7-13.4l0,0"/>
	<path class="st0" d="M62.8,22.4c2.5,0.1,4.9,0.5,7.3,1.1c2.4,0.6,4.8,1.4,7,2.4c2.3,1,4.4,2.4,6.3,4l1.3,1.3l0.7,0.7l0.6,0.7
		c0.8,1,1.4,2.1,1.9,3.2l-1.1-1.5c-0.4-0.5-0.8-1-1.2-1.4L85,32.2l-0.7-0.6L83,30.5c-2-1.5-4.1-2.7-6.3-3.7c-2.2-1-4.5-1.9-6.8-2.6
		l-3.5-1L62.8,22.4z"/>
	<path class="st0" d="M24.6,7.6c-0.8,1.2-1.4,2.5-2,3.8c-0.6,1.3-1.1,2.6-1.5,3.9c-0.4,1.3-0.7,2.7-1,4.1c-0.3,1.4-0.5,2.8-0.7,4.2
		c-0.1-0.7-0.1-1.4-0.2-2.2c0-0.7,0-1.5,0.1-2.2c0.1-1.5,0.4-2.9,0.8-4.3c0.4-1.4,1-2.7,1.7-4C22.6,9.7,23.5,8.5,24.6,7.6z"/>
	<path class="st0" d="M100.8,84.2l-4.7-0.9c-0.8-0.2-1.6-0.4-2.4-0.8l0,0c-2.1-1.1-4.4-1.6-6.8-1.6H17.7c-2.6,0-5.1,0.6-7.4,1.9
		l-1,0.3l-4,0.7C3.4,84.1,2,85.7,2,87.6v1.2c0,1.5,0.8,2.9,2.1,3.7h0.2c1.2,0.8,2,2.1,2,3.6v6c-0.1,5.9,4.6,10.8,10.5,10.9
		c0.1,0,0.2,0,0.3,0h23.8c4.4,0,8-3.6,8-8v-9.1c0-1.3,0.5-2.5,1.4-3.4l0,0c1.5-1.4,3.8-1.4,5.2,0c0,0,0,0,0.1,0.1
		c1,1.1,1.5,2.5,1.5,4v8.6c0,4.3,3.5,7.8,7.8,7.8l0,0h23.7c6.1,0,11-4.9,11-11v-4.7c0-1.8,0.9-3.5,2.5-4.4c1.1-0.7,1.8-2,1.8-3.3V88
		C103.9,86.2,102.6,84.6,100.8,84.2z M44.1,103c0,2.9-2.3,5.2-5.2,5.2H16.4c-2.9,0-5.2-2.3-5.2-5.2V90.9c0-2.9,2.3-5.2,5.2-5.2h22.5
		c2.9,0,5.2,2.3,5.2,5.2L44.1,103z M94.8,103c0,2.9-2.3,5.2-5.2,5.2H67.1c-2.9,0-5.2-2.3-5.2-5.2V90.9c0-2.9,2.3-5.2,5.2-5.2h22.5
		c2.9,0,5.2,2.3,5.2,5.2L94.8,103z"/>
</g>
</svg>
